  0
SECTION
  2
HEADER
  9
$ACADVER
  1
AC1009
  9
$FILLMODE
 70
0
  9
$EXTMIN
 10
-5.3248
 20
0.0000
 30
0.0000
  9
$EXTMAX
 10
101.8368
 20
80.0000
 30
0.0000
  0
ENDSEC
  0
SECTION
  2
TABLES
  0
TABLE
  2
LTYPE
 70
1
  0
LTYPE
  2
CONTINUOUS
 70
64
  3
Solid line
 72
65
 73
0
 40
0
  0
ENDTAB
  0
TABLE
  2
LAYER
 70
255
  0
LAYER
  2
16
 70
64
 62
175
  6
CONTINUOUS
  0
LAYER
  2
19
 70
64
 62
53
  6
CONTINUOUS
  0
ENDTAB
  0
ENDSEC
  0
SECTION
  2
BLOCKS
  0
BLOCK
  8
0
  2
RECT
 70
64
 10
0.0000
 20
0.0000
 30
0.0000
  3
RECT
  0
SOLID
  8
0
 10
-0.5000
 20
-0.5000
 30
0.0000
 11
0.5000
 21
-0.5000
 31
0.0000
 12
-0.5000
 22
0.5000
 32
0.0000
 13
0.5000
 23
0.5000
 33
0.0000
  0
ENDBLK
  8
0
  0
BLOCK
  8
0
  2
PIE
 70
64
 10
0.0000
 20
0.0000
 30
0.0000
  3
PIE
  0
CIRCLE
  8
0
 10
0.0000
 20
0.0000
 30
0.0000
 40
0.5000
  0
ENDBLK
  8
0
  0
BLOCK
  8
0
  2
OCTAGONP
 70
64
 10
0.0000
 20
0.0000
 30
0.0000
  3
OCTAGONP
  0
POLYLINE
  8
0
 66
1
 10
0.0000
 20
0.0000
 30
0.0000
 40
0.0000
 41
0.0000
 70
1
  0
VERTEX
  8
0
 10
-0.5000
 20
-0.2071
 30
0.0000
  0
VERTEX
  8
0
 10
-0.5000
 20
0.2071
 30
0.0000
  0
VERTEX
  8
0
 10
-0.2071
 20
0.5000
 30
0.0000
  0
VERTEX
  8
0
 10
0.2071
 20
0.5000
 30
0.0000
  0
VERTEX
  8
0
 10
0.5000
 20
0.2071
 30
0.0000
  0
VERTEX
  8
0
 10
0.5000
 20
-0.2071
 30
0.0000
  0
VERTEX
  8
0
 10
0.2071
 20
-0.5000
 30
0.0000
  0
VERTEX
  8
0
 10
-0.2071
 20
-0.5000
 30
0.0000
  0
SEQEND
  8
0
  0
ENDBLK
  8
0
  0
BLOCK
  8
0
  2
SQUAREP
 70
64
 10
0.0000
 20
0.0000
 30
0.0000
  3
SQUAREP
  0
SOLID
  8
0
 10
-0.5000
 20
-0.5000
 30
0.0000
 11
0.5000
 21
-0.5000
 31
0.0000
 12
-0.5000
 22
0.5000
 32
0.0000
 13
0.5000
 23
0.5000
 33
0.0000
  0
ENDBLK
  8
0
  0
BLOCK
  8
0
  2
ROUNDP
 70
64
 10
0.0000
 20
0.0000
 30
0.0000
  3
ROUNDP
  0
CIRCLE
  8
0
 10
0.0000
 20
0.0000
 30
0.0000
 40
0.5000
  0
ENDBLK
  8
0
  0
BLOCK
  8
0
  2
ANNULUSP
 70
64
 10
0.0000
 20
0.0000
 30
0.0000
  3
ANNULUSP
  0
CIRCLE
  8
0
 10
0.0000
 20
0.0000
 30
0.0000
 40
0.5000
  0
ENDBLK
  8
0
  0
BLOCK
  8
0
  2
THERMALP
 70
64
 10
0.0000
 20
0.0000
 30
0.0000
  3
THERMALP
  0
LINE
  8
0
 10
-0.2379
 20
0.4500
 30
0.0000
 11
0.2379
 21
0.4500
 31
0.0000
  0
LINE
  8
0
 10
0.4500
 20
0.2379
 30
0.0000
 11
0.4500
 21
-0.2379
 31
0.0000
  0
LINE
  8
0
 10
0.2379
 20
-0.4500
 30
0.0000
 11
-0.2379
 21
-0.4500
 31
0.0000
  0
LINE
  8
0
 10
-0.4500
 20
-0.2379
 30
0.0000
 11
-0.4500
 21
0.2379
 31
0.0000
  0
ENDBLK
  8
0
  0
BLOCK
  8
0
  2
OCTAGONV
 70
64
 10
0.0000
 20
0.0000
 30
0.0000
  3
OCTAGONV
  0
POLYLINE
  8
0
 66
1
 10
0.0000
 20
0.0000
 30
0.0000
 40
0.0000
 41
0.0000
 70
1
  0
VERTEX
  8
0
 10
-0.5000
 20
-0.2071
 30
0.0000
  0
VERTEX
  8
0
 10
-0.5000
 20
0.2071
 30
0.0000
  0
VERTEX
  8
0
 10
-0.2071
 20
0.5000
 30
0.0000
  0
VERTEX
  8
0
 10
0.2071
 20
0.5000
 30
0.0000
  0
VERTEX
  8
0
 10
0.5000
 20
0.2071
 30
0.0000
  0
VERTEX
  8
0
 10
0.5000
 20
-0.2071
 30
0.0000
  0
VERTEX
  8
0
 10
0.2071
 20
-0.5000
 30
0.0000
  0
VERTEX
  8
0
 10
-0.2071
 20
-0.5000
 30
0.0000
  0
SEQEND
  8
0
  0
ENDBLK
  8
0
  0
BLOCK
  8
0
  2
SQUAREV
 70
64
 10
0.0000
 20
0.0000
 30
0.0000
  3
SQUAREV
  0
SOLID
  8
0
 10
-0.5000
 20
-0.5000
 30
0.0000
 11
0.5000
 21
-0.5000
 31
0.0000
 12
-0.5000
 22
0.5000
 32
0.0000
 13
0.5000
 23
0.5000
 33
0.0000
  0
ENDBLK
  8
0
  0
BLOCK
  8
0
  2
ROUNDV
 70
64
 10
0.0000
 20
0.0000
 30
0.0000
  3
ROUNDV
  0
CIRCLE
  8
0
 10
0.0000
 20
0.0000
 30
0.0000
 40
0.5000
  0
ENDBLK
  8
0
  0
BLOCK
  8
0
  2
ANNULUSV
 70
64
 10
0.0000
 20
0.0000
 30
0.0000
  3
ANNULUSV
  0
CIRCLE
  8
0
 10
0.0000
 20
0.0000
 30
0.0000
 40
0.5000
  0
ENDBLK
  8
0
  0
BLOCK
  8
0
  2
THERMALV
 70
64
 10
0.0000
 20
0.0000
 30
0.0000
  3
THERMALV
  0
LINE
  8
0
 10
-0.2379
 20
0.4500
 30
0.0000
 11
0.2379
 21
0.4500
 31
0.0000
  0
LINE
  8
0
 10
0.4500
 20
0.2379
 30
0.0000
 11
0.4500
 21
-0.2379
 31
0.0000
  0
LINE
  8
0
 10
0.2379
 20
-0.4500
 30
0.0000
 11
-0.2379
 21
-0.4500
 31
0.0000
  0
LINE
  8
0
 10
-0.4500
 20
-0.2379
 30
0.0000
 11
-0.4500
 21
0.2379
 31
0.0000
  0
ENDBLK
  8
0
  0
BLOCK
  8
0
  2
LONGP100
 70
64
 10
0.0000
 20
0.0000
 30
0.0000
  3
LONGP100
  0
POLYLINE
  8
0
 66
1
 10
0.0000
 20
0.0000
 30
0.0000
 40
0.0000
 41
0.0000
 70
1
  0
VERTEX
  8
0
 10
-0.5000
 20
-0.5000
 30
0.0000
  0
VERTEX
  8
0
 10
0.5000
 20
-0.5000
 30
0.0000
 42
1.0000
  0
VERTEX
  8
0
 10
0.5000
 20
0.5000
 30
0.0000
  0
VERTEX
  8
0
 10
-0.5000
 20
0.5000
 30
0.0000
 42
1.0000
  0
SEQEND
  8
0
  0
ENDBLK
  8
0
  0
ENDSEC
  0
SECTION
  2
ENTITIES
  0
CIRCLE
  8
16
 10
0.0000
 20
2.5400
 30
0.0000
 40
1.2700
  0
LINE
  8
16
 10
45.7200
 20
48.2600
 30
0.0000
 11
45.7200
 21
50.8000
 31
0.0000
  0
LINE
  8
16
 10
45.7200
 20
48.2600
 30
0.0000
 11
48.2600
 21
48.2600
 31
0.0000
  0
LINE
  8
16
 10
43.1800
 20
48.2600
 30
0.0000
 11
45.7200
 21
48.2600
 31
0.0000
  0
LINE
  8
16
 10
35.5600
 20
45.7200
 30
0.0000
 11
40.6400
 21
45.7200
 31
0.0000
  0
LINE
  8
16
 10
40.6400
 20
45.7200
 30
0.0000
 11
40.6400
 21
48.2600
 31
0.0000
  0
LINE
  8
16
 10
40.6400
 20
48.2600
 30
0.0000
 11
43.1800
 21
48.2600
 31
0.0000
  0
LINE
  8
16
 10
60.9600
 20
15.2400
 30
0.0000
 11
63.5000
 21
15.2400
 31
0.0000
  0
LINE
  8
16
 10
58.4200
 20
15.4940
 30
0.0000
 11
60.9600
 21
15.4940
 31
0.0000
  0
LINE
  8
16
 10
60.9600
 20
15.4940
 30
0.0000
 11
60.9600
 21
15.2400
 31
0.0000
  0
LINE
  8
16
 10
45.7200
 20
15.2400
 30
0.0000
 11
50.8000
 21
15.2400
 31
0.0000
  0
LINE
  8
16
 10
81.2800
 20
5.0800
 30
0.0000
 11
81.2800
 21
15.2400
 31
0.0000
  0
LINE
  8
16
 10
17.7800
 20
5.0800
 30
0.0000
 11
81.2800
 21
5.0800
 31
0.0000
  0
LINE
  8
16
 10
17.7800
 20
5.0800
 30
0.0000
 11
17.7800
 21
12.7000
 31
0.0000
  0
LINE
  8
16
 10
17.7800
 20
12.7000
 30
0.0000
 11
17.7800
 21
15.2400
 31
0.0000
  0
LINE
  8
16
 10
17.7800
 20
15.2400
 30
0.0000
 11
12.7000
 21
15.2400
 31
0.0000
  0
LINE
  8
16
 10
17.7800
 20
12.7000
 30
0.0000
 11
25.4000
 21
12.7000
 31
0.0000
  0
LINE
  8
16
 10
25.4000
 20
12.7000
 30
0.0000
 11
30.4800
 21
12.7000
 31
0.0000
  0
LINE
  8
16
 10
33.0200
 20
45.7200
 30
0.0000
 11
35.5600
 21
45.7200
 31
0.0000
  0
LINE
  8
16
 10
30.4800
 20
48.2600
 30
0.0000
 11
30.4800
 21
45.7200
 31
0.0000
  0
LINE
  8
16
 10
30.4800
 20
45.7200
 30
0.0000
 11
33.0200
 21
45.7200
 31
0.0000
  0
LINE
  8
16
 10
20.3200
 20
48.2600
 30
0.0000
 11
30.4800
 21
48.2600
 31
0.0000
  0
LINE
  8
16
 10
13.9700
 20
53.3400
 30
0.0000
 11
13.9700
 21
53.7464
 31
0.0000
  0
LINE
  8
16
 10
7.6200
 20
71.1200
 30
0.0000
 11
7.6200
 21
73.6600
 31
0.0000
  0
LINE
  8
16
 10
7.6200
 20
71.1200
 30
0.0000
 11
5.0800
 21
71.1200
 31
0.0000
  0
LINE
  8
16
 10
25.4000
 20
71.1200
 30
0.0000
 11
7.6200
 21
71.1200
 31
0.0000
  0
LINE
  8
16
 10
25.4000
 20
53.3400
 30
0.0000
 11
25.4000
 21
71.1200
 31
0.0000
  0
LINE
  8
16
 10
20.3200
 20
48.2600
 30
0.0000
 11
20.3200
 21
53.3400
 31
0.0000
  0
LINE
  8
16
 10
20.3200
 20
53.3400
 30
0.0000
 11
13.9700
 21
53.3400
 31
0.0000
  0
LINE
  8
16
 10
12.7000
 20
15.2400
 30
0.0000
 11
12.7000
 21
20.3200
 31
0.0000
  0
LINE
  8
16
 10
81.2800
 20
20.3200
 30
0.0000
 11
83.8200
 21
20.3200
 31
0.0000
  0
LINE
  8
16
 10
45.7200
 20
20.3200
 30
0.0000
 11
45.7200
 21
15.2400
 31
0.0000
  0
LINE
  8
16
 10
43.1800
 20
20.3200
 30
0.0000
 11
45.7200
 21
20.3200
 31
0.0000
  0
LINE
  8
16
 10
43.1800
 20
22.8600
 30
0.0000
 11
43.1800
 21
20.3200
 31
0.0000
  0
LINE
  8
16
 10
25.4000
 20
22.8600
 30
0.0000
 11
43.1800
 21
22.8600
 31
0.0000
  0
LINE
  8
16
 10
25.4000
 20
12.7000
 30
0.0000
 11
25.4000
 21
22.8600
 31
0.0000
  0
LINE
  8
16
 10
20.3200
 20
33.0200
 30
0.0000
 11
20.3200
 21
48.2600
 31
0.0000
  0
LINE
  8
16
 10
25.4000
 20
33.0200
 30
0.0000
 11
20.3200
 21
33.0200
 31
0.0000
  0
LINE
  8
16
 10
25.4000
 20
22.8600
 30
0.0000
 11
25.4000
 21
33.0200
 31
0.0000
  0
LINE
  8
16
 10
50.8000
 20
15.2400
 30
0.0000
 11
58.4200
 21
15.2400
 31
0.0000
  0
LINE
  8
16
 10
58.4200
 20
15.2400
 30
0.0000
 11
58.4200
 21
15.4940
 31
0.0000
  0
LINE
  8
16
 10
81.2800
 20
15.2400
 30
0.0000
 11
83.8200
 21
15.2400
 31
0.0000
  0
LINE
  8
16
 10
81.2800
 20
15.2400
 30
0.0000
 11
81.2800
 21
20.3200
 31
0.0000
  0
LINE
  8
16
 10
81.2800
 20
20.3200
 30
0.0000
 11
81.2800
 21
40.6400
 31
0.0000
  0
LINE
  8
16
 10
17.7800
 20
22.8600
 30
0.0000
 11
20.3200
 21
22.8600
 31
0.0000
  0
LINE
  8
16
 10
17.7800
 20
22.8600
 30
0.0000
 11
15.2400
 21
22.8600
 31
0.0000
  0
LINE
  8
16
 10
17.7800
 20
15.2400
 30
0.0000
 11
17.7800
 21
22.8600
 31
0.0000
  0
LINE
  8
16
 10
17.7800
 20
22.8600
 30
0.0000
 11
17.7800
 21
27.9400
 31
0.0000
  0
LINE
  8
16
 10
88.9000
 20
53.7464
 30
0.0000
 11
82.5500
 21
53.7464
 31
0.0000
  0
LINE
  8
16
 10
88.9000
 20
40.6400
 30
0.0000
 11
88.9000
 21
53.7464
 31
0.0000
  0
LINE
  8
16
 10
81.2800
 20
40.6400
 30
0.0000
 11
88.9000
 21
40.6400
 31
0.0000
  0
LINE
  8
16
 10
43.1800
 20
38.1000
 30
0.0000
 11
45.7200
 21
38.1000
 31
0.0000
  0
LINE
  8
16
 10
40.6400
 20
38.1000
 30
0.0000
 11
43.1800
 21
38.1000
 31
0.0000
  0
LINE
  8
16
 10
40.6400
 20
30.4800
 30
0.0000
 11
40.6400
 21
38.1000
 31
0.0000
  0
LINE
  8
16
 10
40.6400
 20
15.2400
 30
0.0000
 11
40.6400
 21
20.3200
 31
0.0000
  0
LINE
  8
16
 10
35.5600
 20
15.2400
 30
0.0000
 11
40.6400
 21
15.2400
 31
0.0000
  0
LINE
  8
16
 10
45.7200
 20
35.5600
 30
0.0000
 11
43.1800
 21
35.5600
 31
0.0000
  0
LINE
  8
16
 10
33.0200
 20
10.1600
 30
0.0000
 11
33.0200
 21
12.7000
 31
0.0000
  0
LINE
  8
16
 10
33.0200
 20
10.1600
 30
0.0000
 11
48.2600
 21
10.1600
 31
0.0000
  0
LINE
  8
16
 10
48.2600
 20
17.7800
 30
0.0000
 11
48.2600
 21
35.5600
 31
0.0000
  0
LINE
  8
16
 10
48.2600
 20
35.5600
 30
0.0000
 11
45.7200
 21
35.5600
 31
0.0000
  0
LINE
  8
16
 10
33.0200
 20
43.1800
 30
0.0000
 11
35.5600
 21
43.1800
 31
0.0000
  0
LINE
  8
16
 10
27.9400
 20
43.1800
 30
0.0000
 11
33.0200
 21
43.1800
 31
0.0000
  0
LINE
  8
16
 10
27.9400
 20
45.5930
 30
0.0000
 11
27.9400
 21
43.1800
 31
0.0000
  0
LINE
  8
16
 10
30.4800
 20
40.6400
 30
0.0000
 11
35.5600
 21
40.6400
 31
0.0000
  0
LINE
  8
16
 10
27.9400
 20
40.7670
 30
0.0000
 11
30.4800
 21
40.6400
 31
0.0000
  0
LINE
  8
16
 10
43.1800
 20
63.5000
 30
0.0000
 11
45.7200
 21
63.5000
 31
0.0000
  0
LINE
  8
16
 10
43.1800
 20
60.9600
 30
0.0000
 11
45.7200
 21
60.9600
 31
0.0000
  0
LINE
  8
16
 10
43.1800
 20
58.4200
 30
0.0000
 11
45.7200
 21
58.4200
 31
0.0000
  0
LINE
  8
16
 10
43.1800
 20
55.8800
 30
0.0000
 11
45.7200
 21
55.8800
 31
0.0000
  0
LINE
  8
16
 10
43.1800
 20
53.3400
 30
0.0000
 11
45.7200
 21
53.3400
 31
0.0000
  0
LINE
  8
16
 10
38.1000
 20
71.1200
 30
0.0000
 11
45.7200
 21
71.1200
 31
0.0000
  0
LINE
  8
16
 10
38.1000
 20
58.4200
 30
0.0000
 11
38.1000
 21
71.1200
 31
0.0000
  0
LINE
  8
16
 10
35.5600
 20
50.8000
 30
0.0000
 11
38.1000
 21
50.8000
 31
0.0000
  0
LINE
  8
16
 10
40.6400
 20
68.5800
 30
0.0000
 11
45.7200
 21
68.5800
 31
0.0000
  0
LINE
  8
16
 10
40.6400
 20
55.8800
 30
0.0000
 11
40.6400
 21
68.5800
 31
0.0000
  0
LINE
  8
16
 10
35.5600
 20
55.8800
 30
0.0000
 11
40.6400
 21
55.8800
 31
0.0000
  0
LINE
  8
16
 10
48.2600
 20
66.0400
 30
0.0000
 11
45.7200
 21
66.0400
 31
0.0000
  0
LINE
  8
16
 10
48.2600
 20
73.6600
 30
0.0000
 11
48.2600
 21
66.0400
 31
0.0000
  0
LINE
  8
16
 10
27.9400
 20
53.3400
 30
0.0000
 11
35.5600
 21
53.3400
 31
0.0000
  0
LINE
  8
16
 10
27.9400
 20
73.6600
 30
0.0000
 11
48.2600
 21
73.6600
 31
0.0000
  0
LINE
  8
16
 10
27.9400
 20
53.3400
 30
0.0000
 11
27.9400
 21
73.6600
 31
0.0000
  0
LINE
  8
16
 10
35.5600
 20
27.9400
 30
0.0000
 11
45.7200
 21
27.9400
 31
0.0000
  0
LINE
  8
16
 10
35.5600
 20
27.9400
 30
0.0000
 11
35.5600
 21
30.4800
 31
0.0000
  0
LINE
  8
16
 10
43.1800
 20
33.0200
 30
0.0000
 11
45.7200
 21
33.0200
 31
0.0000
  0
LINE
  8
16
 10
43.1800
 20
30.4800
 30
0.0000
 11
45.7200
 21
30.4800
 31
0.0000
  0
LINE
  8
16
 10
33.0200
 20
25.4000
 30
0.0000
 11
45.7200
 21
25.4000
 31
0.0000
  0
LINE
  8
16
 10
33.0200
 20
25.4000
 30
0.0000
 11
33.0200
 21
33.0200
 31
0.0000
  0
LINE
  8
16
 10
33.0200
 20
33.0200
 30
0.0000
 11
35.5600
 21
33.0200
 31
0.0000
  0
LINE
  8
16
 10
53.3400
 20
71.1200
 30
0.0000
 11
73.6600
 21
71.1200
 31
0.0000
  0
LINE
  8
16
 10
73.6600
 20
71.1200
 30
0.0000
 11
73.6600
 21
60.9600
 31
0.0000
  0
LINE
  8
16
 10
20.3200
 20
17.7800
 30
0.0000
 11
20.3200
 21
20.3200
 31
0.0000
  0
LINE
  8
16
 10
53.3400
 20
68.5800
 30
0.0000
 11
71.1200
 21
68.5800
 31
0.0000
  0
LINE
  8
16
 10
71.1200
 20
68.5800
 30
0.0000
 11
71.1200
 21
60.9600
 31
0.0000
  0
LINE
  8
16
 10
53.3400
 20
66.0400
 30
0.0000
 11
68.5800
 21
66.0400
 31
0.0000
  0
LINE
  8
16
 10
68.5800
 20
66.0400
 30
0.0000
 11
68.5800
 21
58.4200
 31
0.0000
  0
LINE
  8
16
 10
68.5800
 20
58.4200
 30
0.0000
 11
71.1200
 21
58.4200
 31
0.0000
  0
LINE
  8
19
 10
53.3400
 20
63.5000
 30
0.0000
 11
73.6600
 21
55.8800
 31
0.0000
  0
LINE
  8
16
 10
53.3400
 20
60.9600
 30
0.0000
 11
66.0400
 21
60.9600
 31
0.0000
  0
LINE
  8
16
 10
66.0400
 20
60.9600
 30
0.0000
 11
66.0400
 21
55.8800
 31
0.0000
  0
LINE
  8
16
 10
66.0400
 20
55.8800
 30
0.0000
 11
71.1200
 21
55.8800
 31
0.0000
  0
LINE
  8
16
 10
63.5000
 20
53.3400
 30
0.0000
 11
71.1200
 21
53.3400
 31
0.0000
  0
LINE
  8
16
 10
63.5000
 20
58.4200
 30
0.0000
 11
63.5000
 21
53.3400
 31
0.0000
  0
LINE
  8
16
 10
53.3400
 20
58.4200
 30
0.0000
 11
63.5000
 21
58.4200
 31
0.0000
  0
LINE
  8
19
 10
53.3400
 20
55.8800
 30
0.0000
 11
73.6600
 21
50.8000
 31
0.0000
  0
LINE
  8
16
 10
53.3400
 20
53.3400
 30
0.0000
 11
60.9600
 21
53.3400
 31
0.0000
  0
LINE
  8
16
 10
60.9600
 20
53.3400
 30
0.0000
 11
60.9600
 21
50.8000
 31
0.0000
  0
LINE
  8
16
 10
60.9600
 20
50.8000
 30
0.0000
 11
71.1200
 21
50.8000
 31
0.0000
  0
LINE
  8
16
 10
53.3400
 20
40.6400
 30
0.0000
 11
58.4200
 21
40.6400
 31
0.0000
  0
LINE
  8
16
 10
58.4200
 20
40.6400
 30
0.0000
 11
58.4200
 21
48.2600
 31
0.0000
  0
LINE
  8
16
 10
58.4200
 20
48.2600
 30
0.0000
 11
71.1200
 21
48.2600
 31
0.0000
  0
LINE
  8
19
 10
53.3400
 20
38.1000
 30
0.0000
 11
73.6600
 21
45.7200
 31
0.0000
  0
LINE
  8
16
 10
53.3400
 20
35.5600
 30
0.0000
 11
60.9600
 21
35.5600
 31
0.0000
  0
LINE
  8
16
 10
60.9600
 20
35.5600
 30
0.0000
 11
60.9600
 21
45.7200
 31
0.0000
  0
LINE
  8
16
 10
60.9600
 20
45.7200
 30
0.0000
 11
71.1200
 21
45.7200
 31
0.0000
  0
LINE
  8
16
 10
53.3400
 20
33.0200
 30
0.0000
 11
63.5000
 21
33.0200
 31
0.0000
  0
LINE
  8
16
 10
63.5000
 20
33.0200
 30
0.0000
 11
63.5000
 21
43.1800
 31
0.0000
  0
LINE
  8
16
 10
63.5000
 20
43.1800
 30
0.0000
 11
71.1200
 21
43.1800
 31
0.0000
  0
LINE
  8
19
 10
53.3400
 20
30.4800
 30
0.0000
 11
73.6600
 21
40.6400
 31
0.0000
  0
LINE
  8
16
 10
53.3400
 20
27.9400
 30
0.0000
 11
66.0400
 21
27.9400
 31
0.0000
  0
LINE
  8
16
 10
66.0400
 20
27.9400
 30
0.0000
 11
66.0400
 21
40.6400
 31
0.0000
  0
LINE
  8
16
 10
66.0400
 20
40.6400
 30
0.0000
 11
71.1200
 21
40.6400
 31
0.0000
  0
LINE
  8
16
 10
53.3400
 20
25.4000
 30
0.0000
 11
68.5800
 21
25.4000
 31
0.0000
  0
LINE
  8
16
 10
68.5800
 20
25.4000
 30
0.0000
 11
68.5800
 21
38.1000
 31
0.0000
  0
LINE
  8
16
 10
68.5800
 20
38.1000
 30
0.0000
 11
71.1200
 21
38.1000
 31
0.0000
  0
LINE
  8
16
 10
30.4800
 20
60.9600
 30
0.0000
 11
35.5600
 21
60.9600
 31
0.0000
  0
LINE
  8
16
 10
30.4800
 20
71.1200
 30
0.0000
 11
30.4800
 21
60.9600
 31
0.0000
  0
LINE
  8
16
 10
17.7800
 20
78.7400
 30
0.0000
 11
30.4800
 21
78.7400
 31
0.0000
  0
LINE
  8
16
 10
17.7800
 20
73.6600
 30
0.0000
 11
17.7800
 21
78.7400
 31
0.0000
  0
LINE
  8
16
 10
13.9700
 20
48.2600
 30
0.0000
 11
17.7800
 21
48.2600
 31
0.0000
  0
LINE
  8
16
 10
17.7800
 20
48.2600
 30
0.0000
 11
17.7800
 21
50.8000
 31
0.0000
  0
LINE
  8
16
 10
17.7800
 20
58.4200
 30
0.0000
 11
17.7800
 21
63.5000
 31
0.0000
  0
LINE
  8
16
 10
17.7800
 20
63.5000
 30
0.0000
 11
17.7800
 21
66.0400
 31
0.0000
  0
LINE
  8
16
 10
22.8600
 20
76.2000
 30
0.0000
 11
22.8600
 21
73.6600
 31
0.0000
  0
LINE
  8
16
 10
2.5400
 20
76.2000
 30
0.0000
 11
15.2400
 21
76.2000
 31
0.0000
  0
LINE
  8
16
 10
2.5400
 20
63.5000
 30
0.0000
 11
2.5400
 21
76.2000
 31
0.0000
  0
LINE
  8
16
 10
17.7800
 20
63.5000
 30
0.0000
 11
2.5400
 21
63.5000
 31
0.0000
  0
LINE
  8
16
 10
22.8600
 20
76.2000
 30
0.0000
 11
78.7400
 21
76.2000
 31
0.0000
  0
LINE
  8
16
 10
78.7400
 20
76.2000
 30
0.0000
 11
78.7400
 21
48.2600
 31
0.0000
  0
LINE
  8
16
 10
78.7400
 20
48.2600
 30
0.0000
 11
82.5500
 21
48.2600
 31
0.0000
  0
LINE
  8
16
 10
15.2400
 20
17.7800
 30
0.0000
 11
15.2400
 21
20.3200
 31
0.0000
  0
LINE
  8
16
 10
27.9400
 20
27.9400
 30
0.0000
 11
27.9400
 21
35.5600
 31
0.0000
  0
LINE
  8
16
 10
33.0200
 20
63.5000
 30
0.0000
 11
35.5600
 21
63.5000
 31
0.0000
  0
LINE
  8
19
 10
30.4800
 20
15.2400
 30
0.0000
 11
33.0200
 21
63.5000
 31
0.0000
  0
LINE
  8
16
 10
43.1800
 20
40.6400
 30
0.0000
 11
45.7200
 21
40.6400
 31
0.0000
  0
LINE
  8
16
 10
38.1000
 20
40.6400
 30
0.0000
 11
43.1800
 21
40.6400
 31
0.0000
  0
LINE
  8
16
 10
38.1000
 20
30.4800
 30
0.0000
 11
38.1000
 21
40.6400
 31
0.0000
  0
LINE
  8
16
 10
33.0200
 20
20.3200
 30
0.0000
 11
38.1000
 21
20.3200
 31
0.0000
  0
LINE
  8
16
 10
33.0200
 20
15.2400
 30
0.0000
 11
33.0200
 21
20.3200
 31
0.0000
  0
LINE
  8
16
 10
30.4800
 20
35.5600
 30
0.0000
 11
35.5600
 21
35.5600
 31
0.0000
  0
LINE
  8
16
 10
22.8600
 20
50.8000
 30
0.0000
 11
30.4800
 21
50.8000
 31
0.0000
  0
LINE
  8
16
 10
53.3400
 20
48.2600
 30
0.0000
 11
53.3400
 21
50.8000
 31
0.0000
  0
LINE
  8
16
 10
50.8000
 20
48.2600
 30
0.0000
 11
53.3400
 21
48.2600
 31
0.0000
  0
LINE
  8
16
 10
22.8600
 20
68.5800
 30
0.0000
 11
5.0800
 21
68.5800
 31
0.0000
  0
LINE
  8
16
 10
76.2000
 20
58.4200
 30
0.0000
 11
73.6600
 21
58.4200
 31
0.0000
  0
LINE
  8
16
 10
76.2000
 20
53.3400
 30
0.0000
 11
76.2000
 21
58.4200
 31
0.0000
  0
LINE
  8
16
 10
76.2000
 20
53.3400
 30
0.0000
 11
73.6600
 21
53.3400
 31
0.0000
  0
LINE
  8
16
 10
76.2000
 20
48.2600
 30
0.0000
 11
73.6600
 21
48.2600
 31
0.0000
  0
LINE
  8
16
 10
76.2000
 20
48.2600
 30
0.0000
 11
76.2000
 21
53.3400
 31
0.0000
  0
LINE
  8
16
 10
76.2000
 20
43.1800
 30
0.0000
 11
73.6600
 21
43.1800
 31
0.0000
  0
LINE
  8
16
 10
76.2000
 20
43.1800
 30
0.0000
 11
76.2000
 21
48.2600
 31
0.0000
  0
LINE
  8
16
 10
76.2000
 20
38.1000
 30
0.0000
 11
73.6600
 21
38.1000
 31
0.0000
  0
LINE
  8
16
 10
76.2000
 20
38.1000
 30
0.0000
 11
76.2000
 21
43.1800
 31
0.0000
  0
LINE
  8
16
 10
63.5000
 20
12.7000
 30
0.0000
 11
68.5800
 21
12.7000
 31
0.0000
  0
LINE
  8
16
 10
68.5800
 20
12.7000
 30
0.0000
 11
68.5800
 21
20.3200
 31
0.0000
  0
LINE
  8
16
 10
71.1200
 20
27.9400
 30
0.0000
 11
76.2000
 21
27.9400
 31
0.0000
  0
LINE
  8
16
 10
76.2000
 20
27.9400
 30
0.0000
 11
76.2000
 21
38.1000
 31
0.0000
  0
LINE
  8
16
 10
60.9600
 20
12.7000
 30
0.0000
 11
63.5000
 21
12.7000
 31
0.0000
  0
LINE
  8
16
 10
68.5800
 20
20.3200
 30
0.0000
 11
53.3400
 21
20.3200
 31
0.0000
  0
LINE
  8
16
 10
50.8000
 20
20.3200
 30
0.0000
 11
50.8000
 21
17.7800
 31
0.0000
  0
LINE
  8
16
 10
50.8000
 20
12.7000
 30
0.0000
 11
35.5600
 21
12.7000
 31
0.0000
  0
LINE
  8
16
 10
50.8000
 20
12.7000
 30
0.0000
 11
60.9600
 21
12.7000
 31
0.0000
  0
LINE
  8
16
 10
33.0200
 20
50.8000
 30
0.0000
 11
33.0200
 21
48.2600
 31
0.0000
  0
LINE
  8
16
 10
30.4800
 20
50.8000
 30
0.0000
 11
33.0200
 21
50.8000
 31
0.0000
  0
LINE
  8
16
 10
22.8600
 20
66.0400
 30
0.0000
 11
22.8600
 21
68.5800
 31
0.0000
  0
LINE
  8
16
 10
22.8600
 20
63.5000
 30
0.0000
 11
22.8600
 21
66.0400
 31
0.0000
  0
LINE
  8
16
 10
22.8600
 20
55.8800
 30
0.0000
 11
22.8600
 21
63.5000
 31
0.0000
  0
LINE
  8
16
 10
22.8600
 20
55.8800
 30
0.0000
 11
22.8600
 21
50.8000
 31
0.0000
  0
LINE
  8
16
 10
50.8000
 20
20.3200
 30
0.0000
 11
50.8000
 21
48.2600
 31
0.0000
  0
LINE
  8
16
 10
53.3400
 20
20.3200
 30
0.0000
 11
50.8000
 21
20.3200
 31
0.0000
  0
LINE
  8
16
 10
33.0200
 20
48.2600
 30
0.0000
 11
35.5600
 21
48.2600
 31
0.0000
  0
LINE
  8
16
 10
22.8600
 20
7.6200
 30
0.0000
 11
50.8000
 21
7.6200
 31
0.0000
  0
LINE
  8
16
 10
22.8600
 20
7.6200
 30
0.0000
 11
22.8600
 21
10.1600
 31
0.0000
  0
LINE
  8
16
 10
22.8600
 20
15.2400
 30
0.0000
 11
22.8600
 21
30.4800
 31
0.0000
  0
LINE
  8
16
 10
22.8600
 20
30.4800
 30
0.0000
 11
5.0800
 21
30.4800
 31
0.0000
  0
LINE
  8
16
 10
5.0800
 20
30.4800
 30
0.0000
 11
5.0800
 21
55.8800
 31
0.0000
  0
LINE
  8
16
 10
5.0800
 20
55.8800
 30
0.0000
 11
22.8600
 21
55.8800
 31
0.0000
  0
LINE
  8
16
 10
50.8000
 20
7.6200
 30
0.0000
 11
50.8000
 21
12.7000
 31
0.0000
  0
LINE
  8
16
 10
71.1200
 20
20.3200
 30
0.0000
 11
71.1200
 21
27.9400
 31
0.0000
  0
LINE
  8
16
 10
68.5800
 20
20.3200
 30
0.0000
 11
71.1200
 21
20.3200
 31
0.0000
  0
LINE
  8
16
 10
20.3200
 20
7.6200
 30
0.0000
 11
22.8600
 21
7.6200
 31
0.0000
  0
LINE
  8
16
 10
91.4400
 20
25.4000
 30
0.0000
 11
83.8200
 21
25.4000
 31
0.0000
  0
LINE
  8
16
 10
91.4400
 20
2.5400
 30
0.0000
 11
91.4400
 21
25.4000
 31
0.0000
  0
LINE
  8
16
 10
12.7000
 20
2.5400
 30
0.0000
 11
53.3400
 21
2.5400
 31
0.0000
  0
LINE
  8
16
 10
12.7000
 20
2.5400
 30
0.0000
 11
12.7000
 21
7.6200
 31
0.0000
  0
LINE
  8
16
 10
12.7000
 20
7.6200
 30
0.0000
 11
12.7000
 21
10.1600
 31
0.0000
  0
LINE
  8
16
 10
58.4200
 20
17.5260
 30
0.0000
 11
58.4200
 21
17.7800
 31
0.0000
  0
LINE
  8
16
 10
63.5000
 20
17.5260
 30
0.0000
 11
58.4200
 21
17.5260
 31
0.0000
  0
LINE
  8
16
 10
63.5000
 20
17.7800
 30
0.0000
 11
63.5000
 21
17.5260
 31
0.0000
  0
LINE
  8
16
 10
53.3400
 20
17.7800
 30
0.0000
 11
63.5000
 21
17.7800
 31
0.0000
  0
LINE
  8
16
 10
53.3400
 20
2.5400
 30
0.0000
 11
91.4400
 21
2.5400
 31
0.0000
  0
LINE
  8
16
 10
12.7000
 20
7.6200
 30
0.0000
 11
15.2400
 21
7.6200
 31
0.0000
  0
ENDSEC
  0
EOF
